rec1_006.mot
nRows=22
nColumns=19

name rec1_006.mot
datacolumns 19
datarows 22
range 10.0040793221 10.0460793365
endheader
time	ground_force_vx	ground_force_vy	ground_force_vz	ground_force_px	ground_force_py	ground_force_pz	1_ground_force_vx	1_ground_force_vy	1_ground_force_vz	1_ground_force_px	1_ground_force_py	1_ground_force_pz	ground_torque_x	ground_torque_y	ground_torque_z	1_ground_torque_x	1_ground_torque_y	1_ground_torque_z	
       10.0040793221	       91.8353206831	      664.2014828068	      -30.7066373979	       -0.7000000000	       -0.0180000000	        0.5600000000	      -14.0590583091	      320.4964528332	      -19.0687712172	       -0.7000000000	       -0.0180000000	       -0.5600000000	      319.8287938150	      -21.3439152782	      545.4877583308	     -146.0144356815	       18.6474015082	      394.0103164278	
       10.0060790580	       92.5043089651	      660.5947118122	      -29.5378314477	       -0.7000000000	       -0.0180000000	        0.5600000000	      -16.2641152881	      331.1574198143	      -19.4781523097	       -0.7000000000	       -0.0180000000	       -0.5600000000	      318.2886515757	      -22.3334132573	      541.8238254924	     -150.9579238096	       18.2549101430	      407.0319023997	
       10.0080793139	       93.1771855832	      656.7301839629	      -28.3654690228	       -0.7000000000	       -0.0180000000	        0.5600000000	      -18.4860057502	      341.2563288956	      -19.8039562189	       -0.7000000000	       -0.0180000000	       -0.5600000000	      316.6230604316	      -23.3221927033	      537.9468282475	     -155.6367926962	       17.7632426447	      419.3380480385	
       10.0100791299	       93.8551478059	      652.6016033840	      -27.1881964968	       -0.7000000000	       -0.0180000000	        0.5600000000	      -20.7020347739	      350.7691178686	      -20.0501304214	       -0.7000000000	       -0.0180000000	       -0.5600000000	      314.8280698450	      -24.3126909990	      533.8515569323	     -160.0384336982	       17.1845217905	      430.8972325527	
       10.0120794258	       94.5391567432	      648.2043376190	      -26.0055572990	       -0.7000000000	       -0.0180000000	        0.5600000000	      -22.8882415005	      359.6804480437	      -20.2171052315	       -0.7000000000	       -0.0180000000	       -0.5600000000	      312.9005706803	      -25.3057102447	      529.5347415166	     -164.1544242775	       16.5270133424	      441.6892100607	
       10.0140791217	       95.2299262110	      643.5351352457	      -24.8184306504	       -0.7000000000	       -0.0180000000	        0.5600000000	      -25.0205847172	      367.9836097012	      -20.3012905968	       -0.7000000000	       -0.0180000000	       -0.5600000000	      310.8381353240	      -26.3000050016	      524.9948179169	     -167.9804318662	       15.7940086971	      451.7050075424	
       10.0160794977	       95.9278392221	      638.5913421180	      -23.6292861656	       -0.7000000000	       -0.0180000000	        0.5600000000	      -27.0761838191	      375.6800641739	      -20.2952893514	       -0.7000000000	       -0.0180000000	       -0.5600000000	      308.6387548513	      -27.2929767918	      520.2310705434	     -171.5160075665	       14.9835536817	      460.9462545143	
       10.0180791936	       96.6328410928	      633.3701789537	      -22.4421234913	       -0.7000000000	       -0.0180000000	        0.5600000000	      -29.0343559981	      382.7788910743	      -20.1883698865	       -0.7000000000	       -0.0180000000	       -0.5600000000	      306.3005524004	      -28.2811761279	      515.2427129892	     -174.7644507551	       14.0887399447	      469.4244032204	
       10.0200794494	       97.3443658019	      627.8684543950	      -21.2621148131	       -0.7000000000	       -0.0180000000	        0.5600000000	      -30.8772503080	      389.2958993516	      -19.9678330028	       -0.7000000000	       -0.0180000000	       -0.5600000000	      303.8215587272	      -29.2604259514	      510.0284926922	     -177.7323228547	       13.0992676507	      477.1594699586	
       10.0220791854	       98.0613439127	      622.0825360371	      -20.0952337063	       -0.7000000000	       -0.0180000000	        0.5600000000	      -32.5901931475	      395.2527330337	      -19.6204002029	       -0.7000000000	       -0.0180000000	       -0.5600000000	      301.1996303241	      -30.2256852054	      504.5867797361	     -180.4289200737	       12.0031529799	      484.1789248882	
       10.0240794414	       98.7821871310	      616.0083956053	      -18.9477439360	       -0.7000000000	       -0.0180000000	        0.5600000000	      -34.1620426060	      400.6760121974	      -19.1331819136	       -0.7000000000	       -0.0180000000	       -0.5600000000	      298.4323908374	      -31.1711071707	      498.9158507878	     -182.8658646042	       10.7878634179	      490.5167032551	
       10.0260792572	       99.5046834710	      609.6415293066	      -17.8255868500	       -0.7000000000	       -0.0180000000	        0.5600000000	      -35.5856054271	      405.5961426955	      -18.4948126975	       -0.7000000000	       -0.0180000000	       -0.5600000000	      295.5171310131	      -32.0907767733	      493.0140642035	     -185.0564821133	        9.4414205478	      496.2116848029	
       10.0280794732	      100.2258278509	      602.9768310631	      -16.7338671203	       -0.7000000000	       -0.0180000000	        0.5600000000	      -36.8581526477	      410.0460820929	      -17.6961289912	       -0.7000000000	       -0.0180000000	       -0.5600000000	      292.4507532623	      -32.9795819993	      486.8798623169	     -187.0152213435	        7.9529114953	      501.3061268862	
       10.0300792092	      100.9415729408	      596.0086800117	      -15.6764403684	       -0.7000000000	       -0.0180000000	        0.5600000000	      -37.9818980571	      414.0600031330	      -16.7306500546	       -0.7000000000	       -0.0180000000	       -0.5600000000	      289.2297899691	      -33.8337653967	      480.5117583592	     -188.7570750352	        6.3128972555	      505.8438430233	
       10.0320795451	      101.6466384547	      588.7311461047	      -14.6558488547	       -0.7000000000	       -0.0180000000	        0.5600000000	      -38.9640460519	      417.6718705728	      -15.5951108803	       -0.7000000000	       -0.0180000000	       -0.5600000000	      285.8505335566	      -34.6509563917	      473.9082578564	     -190.2970045835	        4.5141448767	      509.8682238702	
       10.0340794010	      102.3345274178	      581.1382289371	      -13.6736067603	       -0.7000000000	       -0.0180000000	        0.5600000000	      -39.8162318616	      420.9145383692	      -14.2893370186	       -0.7000000000	       -0.0180000000	       -0.5600000000	      282.3092444563	      -35.4292507216	      467.0677257577	     -191.6497707010	        2.5519327886	      513.4210784631	
       10.0360795770	      102.9976856000	      573.2241082194	      -12.7305509470	       -0.7000000000	       -0.0180000000	        0.5600000000	      -40.5533523557	      423.8193005441	      -12.8162443745	       -0.7000000000	       -0.0180000000	       -0.5600000000	      278.6023245035	      -36.1660745585	      459.9883879967	     -192.8298145634	        0.4246303960	      516.5420106281	
       10.0380792729	      103.6277086024	      564.9833121378	      -11.8272730627	       -0.7000000000	       -0.0180000000	        0.5600000000	      -41.1920455114	      426.4157420006	      -11.1820813437	       -0.7000000000	       -0.0180000000	       -0.5600000000	      274.7264944218	      -36.8580613007	      452.6684840372	     -193.8510702565	       -1.8655202309	      519.2682424478	
       10.0400796887	      104.2154303778	      556.4110424667	      -10.9644311930	       -0.7000000000	       -0.0180000000	        0.5600000000	      -41.7493754119	      428.7318789956	       -9.3962991434	       -0.7000000000	       -0.0180000000	       -0.5600000000	      270.6790173742	      -37.5016114633	      445.1066031903	     -194.7270004348	       -4.3122237866	      521.6349359943	
       10.0420793047	      104.7508037810	      547.5037606457	      -10.1427540668	       -0.7000000000	       -0.0180000000	        0.5600000000	      -42.2420380367	      430.7943189864	       -7.4717074461	       -0.7000000000	       -0.0180000000	       -0.5600000000	      266.4579280672	      -38.0931463019	      437.3021565017	     -195.4706457320	       -6.9048714679	      523.6753767562	
       10.0440796406	      105.2227565245	      538.2596971044	       -9.3629212363	       -0.7000000000	       -0.0180000000	        0.5600000000	      -42.6861588534	      432.6286380354	       -5.4245670383	       -0.7000000000	       -0.0180000000	       -0.5600000000	      262.0622498988	      -38.6287698347	      429.2556936782	     -196.0947939305	       -9.6285174905	      525.4214065694	
       10.0460793365	      105.6191538304	      528.6791390227	       -8.6252543875	       -0.7000000000	       -0.0180000000	        0.5600000000	      -43.0975285254	      434.2598127736	       -3.2743212091	       -0.7000000000	       -0.0180000000	       -0.5600000000	      257.4921342099	      -39.1038178818	      420.9690044120	     -196.6121976737	      -12.4643620862	      526.9040271274	
